<svg id="Layer_1" data-name="Layer 1" xmlns="http://www.w3.org/2000/svg" viewBox="0 0 41.58 29.62"><defs><style>.cls-1{fill:#fff;}</style></defs><title>email-icon</title><path class="cls-1" d="M326.76,384.17c0-.05,0-.1,0-.14L314.1,396.25l12.67,11.84a2.26,2.26,0,0,0,0-.26V384.17Z" transform="translate(-285.21 -381.19)"/><path class="cls-1" d="M312.16,398.13l-5.18,5a1.36,1.36,0,0,1-.94.38,1.32,1.32,0,0,1-.92-.37L300,398.32,287.2,410.61a2.73,2.73,0,0,0,1,.2H323.9a3,3,0,0,0,1.42-.39Z" transform="translate(-285.21 -381.19)"/><path class="cls-1" d="M306,400.28l19.36-18.66a2.94,2.94,0,0,0-1.49-.43H288.19a2.9,2.9,0,0,0-1.87.7Z" transform="translate(-285.21 -381.19)"/><path class="cls-1" d="M285.21,384.62v23.21a2.82,2.82,0,0,0,.13.77l12.6-12.13Z" transform="translate(-285.21 -381.19)"/></svg>