<svg id="Layer_1" data-name="Layer 1" xmlns="http://www.w3.org/2000/svg" viewBox="0 0 32.25 32.25"><defs><style>.cls-1{fill:#fff;}</style></defs><title>instagram-icon</title><path class="cls-1" d="M306,382.79c4.32,0,4.84,0,6.5.1a7.74,7.74,0,0,1,3,.57,5.6,5.6,0,0,1,1.87,1.2,4.47,4.47,0,0,1,1.2,1.87,10,10,0,0,1,.57,3c0,1.72.1,2.18.1,6.5s0,4.84-.1,6.5a7.74,7.74,0,0,1-.57,3,5.45,5.45,0,0,1-1.2,1.87,4.37,4.37,0,0,1-1.87,1.2,9.9,9.9,0,0,1-3,.57c-1.71.05-2.18.11-6.5.11s-4.84,0-6.5-.11a7.74,7.74,0,0,1-3-.57,5.31,5.31,0,0,1-1.87-1.2,4.47,4.47,0,0,1-1.2-1.87,9.83,9.83,0,0,1-.57-3c0-1.71,0-2.23,0-6.55s0-4.84.1-6.5a7.74,7.74,0,0,1,.57-3,5.6,5.6,0,0,1,1.2-1.87,4.47,4.47,0,0,1,1.87-1.2,10,10,0,0,1,3-.57c1.61,0,2.13,0,6.45,0m0-2.91c-4.37,0-4.94,0-6.66.1a13.06,13.06,0,0,0-3.9.73,8.34,8.34,0,0,0-4.73,4.73,10.74,10.74,0,0,0-.73,3.9c-.1,1.72-.1,2.29-.1,6.66s0,4.94.1,6.66a13.06,13.06,0,0,0,.73,3.9,8.34,8.34,0,0,0,4.73,4.73,10.74,10.74,0,0,0,3.9.73c1.72.1,2.29.1,6.66.1s4.94,0,6.66-.1a13.06,13.06,0,0,0,3.9-.73,8.34,8.34,0,0,0,4.73-4.73,10.74,10.74,0,0,0,.73-3.9c.1-1.72.1-2.29.1-6.66s0-4.94-.1-6.66a13.06,13.06,0,0,0-.73-3.9,8.34,8.34,0,0,0-4.73-4.73,10.74,10.74,0,0,0-3.9-.73c-1.72-.1-2.29-.1-6.66-.1Z" transform="translate(-289.88 -379.88)"/><path class="cls-1" d="M306,387.73a8.27,8.27,0,1,0,8.27,8.27A8.25,8.25,0,0,0,306,387.73Zm0,13.63a5.36,5.36,0,1,1,5.36-5.36A5.36,5.36,0,0,1,306,401.36Z" transform="translate(-289.88 -379.88)"/><circle class="cls-1" cx="24.71" cy="7.54" r="1.92"/></svg>