<svg id="Layer_1" data-name="Layer 1" xmlns="http://www.w3.org/2000/svg" xmlns:xlink="http://www.w3.org/1999/xlink" viewBox="0 0 260.6 65.59"><defs><style>.cls-1{fill:#fff;}.cls-2{fill:#d5af34;}.cls-3{fill:url(#linear-gradient);}.cls-4{fill:url(#linear-gradient-2);}</style><linearGradient id="linear-gradient" x1="195.39" y1="396" x2="249.96" y2="396" gradientUnits="userSpaceOnUse"><stop offset="0.01" stop-color="#c49a2f"/><stop offset="0.11" stop-color="#d3b34b"/><stop offset="0.26" stop-color="#e8d673"/><stop offset="0.37" stop-color="#f5eb8b"/><stop offset="0.45" stop-color="#faf394"/><stop offset="0.53" stop-color="#f7ef91"/><stop offset="0.62" stop-color="#ede288"/><stop offset="0.71" stop-color="#ddcc78"/><stop offset="0.8" stop-color="#c7ae63"/><stop offset="0.89" stop-color="#aa8747"/><stop offset="0.98" stop-color="#875926"/><stop offset="1" stop-color="#815020"/></linearGradient><linearGradient id="linear-gradient-2" x1="21.8" y1="32.79" x2="72.15" y2="32.79" gradientUnits="userSpaceOnUse"><stop offset="0.01" stop-color="#231f20"/><stop offset="0.02" stop-color="#242021"/><stop offset="0.28" stop-color="#393739"/><stop offset="0.45" stop-color="#414042"/><stop offset="0.63" stop-color="#3d3c3e"/><stop offset="0.83" stop-color="#322f31"/><stop offset="1" stop-color="#231f20"/></linearGradient></defs><title>avila-tile-logo</title><path class="cls-1" d="M257.51,405.78h1.39l2.28,2.69v-2.69h.94v3.93H261l-2.56-2.94v2.94h-.93Z" transform="translate(-175.7 -363.21)"/><path class="cls-1" d="M265.8,405.78h4v.78h-3v.72h3v.79h-3v.85h3v.79h-4Z" transform="translate(-175.7 -363.21)"/><path class="cls-1" d="M274.41,405.78l1.35,1.34,1.34-1.34h1.1l-1.76,1.85,2.05,2.08h-1.17l-1.56-1.56-1.57,1.56H273l2.06-2.08-1.78-1.85Z" transform="translate(-175.7 -363.21)"/><path class="cls-1" d="M285.8,405.78v.79h-1.64v3.14h-.93v-3.14h-1.64v-.79Z" transform="translate(-175.7 -363.21)"/><path class="cls-1" d="M295.05,405.78H296v3.14h2.39v.79h-3.33Z" transform="translate(-175.7 -363.21)"/><path class="cls-1" d="M302,405.78h4v.78h-3.05v.72h3v.79h-3v.85h3.05v.79h-4Z" transform="translate(-175.7 -363.21)"/><path class="cls-1" d="M310.32,405.78l1.61,3.25,1.61-3.25h1.07l-1.94,3.93h-1.49l-1.93-3.93Z" transform="translate(-175.7 -363.21)"/><path class="cls-1" d="M318,405.78h4v.78H318.9v.72h3v.79h-3v.85H322v.79h-4Z" transform="translate(-175.7 -363.21)"/><path class="cls-1" d="M325.51,405.78h.94v3.14h2.39v.79h-3.33Z" transform="translate(-175.7 -363.21)"/><path class="cls-1" d="M340,409.71a3.7,3.7,0,0,1-.89-.08,1.13,1.13,0,0,1-.55-.26,1,1,0,0,1-.29-.49,3.2,3.2,0,0,1-.08-.82v-.49a3,3,0,0,1,.16-1.15.86.86,0,0,1,.54-.51,3.69,3.69,0,0,1,1.15-.13h.83a6.29,6.29,0,0,1,1,.05,1.31,1.31,0,0,1,.56.2.76.76,0,0,1,.3.4,2.48,2.48,0,0,1,.08.68h-1a.62.62,0,0,0-.07-.27.49.49,0,0,0-.27-.14,3.33,3.33,0,0,0-.65-.05h-.72a3.42,3.42,0,0,0-.53,0,.42.42,0,0,0-.27.11.47.47,0,0,0-.14.26,3.16,3.16,0,0,0,0,.5V408a2.83,2.83,0,0,0,0,.47.46.46,0,0,0,.13.25.56.56,0,0,0,.28.12,3.25,3.25,0,0,0,.5,0h.76a4.64,4.64,0,0,0,.63,0,.49.49,0,0,0,.28-.14.59.59,0,0,0,.07-.34h1a2,2,0,0,1-.14.84.84.84,0,0,1-.54.41,4.83,4.83,0,0,1-1.25.12Z" transform="translate(-175.7 -363.21)"/><path class="cls-1" d="M350.6,408.89v.82h-.93v-.61a.52.52,0,0,0-.16-.43.71.71,0,0,0-.48-.14h-1.84v1.18h-.93v-3.93h2.89a2.27,2.27,0,0,1,.81.12.87.87,0,0,1,.46.4,1.56,1.56,0,0,1,.14.73v.28a1.79,1.79,0,0,1-.06.53.6.6,0,0,1-.24.3.45.45,0,0,1,.25.24A1.16,1.16,0,0,1,350.6,408.89Zm-1-1.68v-.09a.39.39,0,0,0-.1-.31.56.56,0,0,0-.36-.09h-2v.88h2a.54.54,0,0,0,.35-.09A.41.41,0,0,0,349.63,407.21Z" transform="translate(-175.7 -363.21)"/><path class="cls-1" d="M355.88,405.78h1.47l2,3.93h-1.09l-.47-.95h-2.36l-.48.95h-1.09Zm.77.73h0l-.77,1.46h1.55Z" transform="translate(-175.7 -363.21)"/><path class="cls-1" d="M362.59,405.78h4v.78h-3v.72h2.94v.79h-2.94v1.64h-.94Z" transform="translate(-175.7 -363.21)"/><path class="cls-1" d="M374.08,405.78v.79h-1.64v3.14h-.93v-3.14h-1.63v-.79Z" transform="translate(-175.7 -363.21)"/><path class="cls-1" d="M378.76,405.78h1.71a1.77,1.77,0,0,1,1.08.27,1,1,0,0,1,.36.84h-1a.29.29,0,0,0-.1-.26.65.65,0,0,0-.37-.07h-1.57a.54.54,0,0,0-.33.08.32.32,0,0,0-.12.29.42.42,0,0,0,0,.22.38.38,0,0,0,.15.09l.25,0,1.73.07a4.31,4.31,0,0,1,.6.06,1,1,0,0,1,.4.16.72.72,0,0,1,.24.34,1.79,1.79,0,0,1,.08.62,1.25,1.25,0,0,1-.29.92,1.52,1.52,0,0,1-1,.28h-1.93a2.06,2.06,0,0,1-.78-.12.78.78,0,0,1-.41-.37,1.41,1.41,0,0,1-.12-.63h.95a.29.29,0,0,0,.13.23.52.52,0,0,0,.33.1h1.56a1.05,1.05,0,0,0,.46-.08.34.34,0,0,0,.15-.32.36.36,0,0,0-.14-.32,1,1,0,0,0-.51-.11l-1.5-.06a4.68,4.68,0,0,1-.88-.11.66.66,0,0,1-.42-.3,1.45,1.45,0,0,1-.13-.71,1.27,1.27,0,0,1,.14-.66.76.76,0,0,1,.44-.36A2.35,2.35,0,0,1,378.76,405.78Z" transform="translate(-175.7 -363.21)"/><path class="cls-1" d="M385.47,405.78h1.44l1.6,2.89,1.66-2.89h1.4v3.93h-.94v-2.89L389,409.71h-1l-1.61-2.89v2.89h-.93Z" transform="translate(-175.7 -363.21)"/><path class="cls-1" d="M396.86,405.78h1.47l2,3.93h-1.09l-.48-.95h-2.35l-.48.95h-1.09Zm.77.73h0l-.77,1.46h1.55Z" transform="translate(-175.7 -363.21)"/><path class="cls-1" d="M403.6,405.78H405l2.28,2.69v-2.69h.94v3.93h-1.12l-2.56-2.94v2.94h-.93Z" transform="translate(-175.7 -363.21)"/><path class="cls-1" d="M413.14,405.78h1.71a1.8,1.8,0,0,1,1.09.27,1,1,0,0,1,.35.84h-1a.32.32,0,0,0-.1-.26.66.66,0,0,0-.38-.07h-1.56a.54.54,0,0,0-.33.08.32.32,0,0,0-.12.29.34.34,0,0,0,.05.22.27.27,0,0,0,.15.09l.25,0,1.72.07a4.32,4.32,0,0,1,.61.06,1,1,0,0,1,.4.16.8.8,0,0,1,.24.34,2.07,2.07,0,0,1,.08.62,1.21,1.21,0,0,1-.3.92,1.47,1.47,0,0,1-1,.28h-1.93a2.06,2.06,0,0,1-.78-.12.75.75,0,0,1-.41-.37,1.41,1.41,0,0,1-.12-.63h.95a.27.27,0,0,0,.13.23.51.51,0,0,0,.32.1h1.56a1.07,1.07,0,0,0,.47-.08.34.34,0,0,0,.15-.32.36.36,0,0,0-.14-.32,1,1,0,0,0-.52-.11l-1.49-.06a4.57,4.57,0,0,1-.88-.11.66.66,0,0,1-.42-.3,1.43,1.43,0,0,1-.14-.71,1.38,1.38,0,0,1,.14-.66.81.81,0,0,1,.45-.36A2.33,2.33,0,0,1,413.14,405.78Z" transform="translate(-175.7 -363.21)"/><path class="cls-1" d="M419.75,405.78h.94v1.5h2.4v-1.5H424v3.93h-.93v-1.64h-2.4v1.64h-.94Z" transform="translate(-175.7 -363.21)"/><path class="cls-1" d="M427.71,409.71v-3.93h.93v3.93Z" transform="translate(-175.7 -363.21)"/><path class="cls-1" d="M434.88,405.78a2.29,2.29,0,0,1,.82.12.87.87,0,0,1,.46.4,1.66,1.66,0,0,1,.14.73v.28a1.85,1.85,0,0,1-.07.57.8.8,0,0,1-.22.38,1,1,0,0,1-.42.21,2.44,2.44,0,0,1-.65.07h-1.72v1.17h-.93v-3.93Zm.49,1.43v-.09a.39.39,0,0,0-.1-.31.56.56,0,0,0-.36-.09h-1.69v.88h1.71a.5.5,0,0,0,.34-.09A.38.38,0,0,0,435.37,407.21Z" transform="translate(-175.7 -363.21)"/><path class="cls-2" d="M298.07,382.29,289,400h-.48l-9.1-17.73H277l10.27,20h2.91l10.25-20Z" transform="translate(-175.7 -363.21)"/><path class="cls-2" d="M303.15,382.29v20h2.05v-20Z" transform="translate(-175.7 -363.21)"/><path class="cls-2" d="M312,400.19v-17.9h-2v20h16.92v-2.09Z" transform="translate(-175.7 -363.21)"/><path class="cls-2" d="M341.89,382.29h-3.16l-10.27,20h2.31l2.45-4.83h0l7-13.67,6,11.62h0l1.05,2.05h0l2.45,4.83h2.39Z" transform="translate(-175.7 -363.21)"/><path class="cls-2" d="M270.94,382.29h-3.16l-10.27,20h2.31l2.45-4.83h0l7-13.67,6,11.62h0l1,2.05h0l2.45,4.83h2.39Z" transform="translate(-175.7 -363.21)"/><path class="cls-2" d="M367.12,382.29v2.09h9.67v17.9h2v-17.9h9.66v-2.09Z" transform="translate(-175.7 -363.21)"/><path class="cls-2" d="M391.92,382.29v20H394v-20Z" transform="translate(-175.7 -363.21)"/><path class="cls-2" d="M400.76,400.19v-17.9h-2v20h16.92v-2.09Z" transform="translate(-175.7 -363.21)"/><path class="cls-2" d="M436.3,384.38v-2.09H418.72v20H436.3v-2.09H420.77V393h15.06v-2.08H420.77v-6.56Z" transform="translate(-175.7 -363.21)"/><path class="cls-3" d="M217.17,363.21,195.39,385l11,11-11,11,21.78,21.77L250,396ZM197.5,407l11-11-1.05-1.06-10-10,19.66-19.66L247.85,396l-30.68,30.68Z" transform="translate(-175.7 -363.21)"/><polygon class="cls-4" points="72.15 32.79 41.47 63.48 21.8 43.81 32.82 32.79 31.77 31.74 21.81 21.77 41.47 2.11 72.15 32.79"/><rect class="cls-2" x="179.8" y="386.11" width="19.79" height="19.79" transform="translate(-400.15 -113.09) rotate(-45)"/></svg>